<?xml version="1.0" encoding="UTF-8" standalone="no"?>
<!-- Created with Inkscape (http://www.inkscape.org/) -->

<svg
   xmlns:dc="http://purl.org/dc/elements/1.1/"
   xmlns:cc="http://creativecommons.org/ns#"
   xmlns:rdf="http://www.w3.org/1999/02/22-rdf-syntax-ns#"
   xmlns:svg="http://www.w3.org/2000/svg"
   xmlns="http://www.w3.org/2000/svg"
   xmlns:sodipodi="http://sodipodi.sourceforge.net/DTD/sodipodi-0.dtd"
   xmlns:inkscape="http://www.inkscape.org/namespaces/inkscape"
   width="512"
   height="512"
   viewBox="0 0 512.00001 512.00001"
   id="svg2"
   version="1.1"
   inkscape:version="0.91 r13725"
   sodipodi:docname="select-source.svg"
   inkscape:export-filename="/home/waldo/Documents/Development/suscan/rsrc/select-source.png"
   inkscape:export-xdpi="5.6199999"
   inkscape:export-ydpi="5.6199999">
  <defs
     id="defs4" />
  <sodipodi:namedview
     id="base"
     pagecolor="#ffffff"
     bordercolor="#666666"
     borderopacity="1.0"
     inkscape:pageopacity="0.0"
     inkscape:pageshadow="2"
     inkscape:zoom="0.45014485"
     inkscape:cx="-173.98347"
     inkscape:cy="291.42857"
     inkscape:document-units="px"
     inkscape:current-layer="layer1"
     showgrid="false"
     units="px"
     inkscape:window-width="1920"
     inkscape:window-height="1024"
     inkscape:window-x="0"
     inkscape:window-y="29"
     inkscape:window-maximized="1" />
  <metadata
     id="metadata7">
    <rdf:RDF>
      <cc:Work
         rdf:about="">
        <dc:format>image/svg+xml</dc:format>
        <dc:type
           rdf:resource="http://purl.org/dc/dcmitype/StillImage" />
        <dc:title></dc:title>
      </cc:Work>
    </rdf:RDF>
  </metadata>
  <g
     inkscape:label="Capa 1"
     inkscape:groupmode="layer"
     id="layer1"
     transform="translate(0,-540.36216)">
    <rect
       style="fill:#000000;fill-opacity:1;stroke:none;stroke-width:10;stroke-linecap:round;stroke-linejoin:round;stroke-miterlimit:4;stroke-dasharray:none;stroke-opacity:1"
       id="rect7476"
       width="500"
       height="500"
       x="6.6645212"
       y="547.54413"
       ry="40" />
    <path
       style="fill:none;fill-opacity:0.75;fill-rule:evenodd;stroke:#00d700;stroke-width:20.53801727;stroke-linecap:round;stroke-linejoin:miter;stroke-miterlimit:4;stroke-dasharray:none;stroke-opacity:1"
       d="m 56.336297,646.01987 c 6.41107,21.86515 9.68541,45.48125 21.98719,65.04123 1.37032,1.63852 3.18879,3.36435 5.49032,3.38278 M 111.26609,646.0187 c -6.41108,21.86514 -9.68541,45.48124 -21.987193,65.04121 -1.37033,1.63852 -3.1888,3.36435 -5.49033,3.38278 m 27.475803,-68.4181 c 6.41108,-21.86514 9.68542,-45.48123 21.98719,-65.04121 1.37032,-1.63852 3.1888,-3.36435 5.49032,-3.38278 m 27.45226,68.42515 c -6.41108,-21.86514 -9.68542,-45.48123 -21.98719,-65.04121 -1.37032,-1.63852 -3.18879,-3.36435 -5.49031,-3.38278 m 27.49119,68.4387 c 6.41108,21.86514 9.68542,45.48123 21.9872,65.04121 1.37031,1.63852 3.18879,3.36435 5.49031,3.38278 m 27.45229,-68.42516 c -6.41107,21.86515 -9.68541,45.48125 -21.9872,65.04123 -1.37032,1.63852 -3.18879,3.36435 -5.49032,3.38278 m 27.47569,-68.41812 c 6.4111,-21.86514 9.68546,-45.48122 21.98721,-65.04121 1.37032,-1.63852 3.18878,-3.36435 5.4903,-3.38278 m 27.45229,68.42516 c -6.41108,-21.86514 -9.68541,-45.48124 -21.98719,-65.04122 -1.37032,-1.63852 -3.1888,-3.36435 -5.49032,-3.38278 m 27.47241,68.40744 c 6.41108,21.86514 9.68542,45.48124 21.9872,65.04122 1.37031,1.63852 3.18879,3.36435 5.49031,3.38278 m 27.45231,-68.42517 c -6.41107,21.86514 -9.68543,45.48124 -21.98722,65.04121 -1.37032,1.63852 -3.1888,3.36435 -5.49032,3.38278 m 27.47566,-68.4181 c 6.41113,-21.86513 9.68549,-45.48123 21.98727,-65.04121 1.37031,-1.63852 3.18879,-3.36435 5.49031,-3.38278 m 27.45225,68.42515 c -6.41107,-21.86514 -9.68539,-45.48123 -21.98716,-65.04121 -1.37032,-1.63852 -3.1888,-3.36435 -5.49032,-3.38278 m 27.47642,68.41886 c 6.41106,21.86514 9.68539,45.48124 21.98716,65.04122 1.37032,1.63852 3.1888,3.36435 5.49032,3.38278 m 27.45225,-68.42516 c -6.41106,21.86515 -9.68543,45.48124 -21.98719,65.04123 -1.37031,1.63852 -3.18877,3.36435 -5.49029,3.38278 m 27.4758,-68.41812 c 6.41107,-21.86514 9.6854,-45.48124 21.98719,-65.04121 1.37033,-1.63853 3.18881,-3.36435 5.49034,-3.38278"
       id="path1360"
       inkscape:connector-curvature="0" />
    <path
       style="fill:#ffffff;fill-opacity:1;stroke:none"
       d="m 241.51024,620.36115 c -12.86424,2.54843 -23.62259,10.75326 -28.94327,21.95415 l -2.88415,6.21085 -0.33064,98.36131 c -0.1119,62.87657 -0.66635,98.47323 -1.33271,98.47323 -1.77525,0 -7.31974,-8.31674 -15.30077,-22.95623 -12.30979,-22.84433 -20.62653,-29.94026 -37.59064,-32.48869 -22.84432,-3.55051 -44.91038,11.64343 -45.13419,31.04916 -0.11191,5.98703 1.1089,8.54055 49.68169,100.90974 33.7095,64.42803 51.00934,96.14353 53.66967,99.02773 7.31976,7.6503 4.76624,7.4316 101.68803,7.4316 53.66966,0 89.04758,-0.4425 92.59301,-1.1089 18.18491,-3.4386 30.71851,-16.079 35.92728,-36.3698 4.65432,-17.6305 8.42865,-99.69406 6.65339,-142.16283 -1.1089,-25.17402 -1.2208,-26.28292 -4.10496,-31.93932 -4.10495,-7.7623 -10.64644,-14.19187 -18.40872,-17.74238 -5.32068,-2.54843 -7.65039,-2.99606 -16.74539,-2.99606 -5.7683,0 -11.53152,0.33063 -12.75233,0.77826 -1.88716,0.77826 -2.54843,0.11191 -4.21177,-4.10496 -2.77225,-6.65339 -12.30979,-15.30076 -20.51462,-18.40873 -6.7653,-2.54843 -18.73937,-3.4386 -25.8353,-1.77525 -3.76923,0.89017 -3.99305,0.77826 -4.6594,-2.2178 -0.88509,-4.6594 -7.31975,-13.63741 -12.64043,-17.63046 -9.64436,-7.31975 -24.72641,-10.53454 -37.14811,-7.8742 l -4.09987,0.89017 -0.33572,-48.57279 c -0.33064,-47.24009 -0.44254,-48.67962 -2.77225,-53.78157 -3.21478,-7.09593 -7.31974,-12.19788 -12.4166,-15.7433 -8.87627,-6.21085 -22.28987,-9.20691 -32.05123,-7.21293 z m 13.6425,25.39784 c 1.55144,0.55445 4.10496,2.44161 5.54449,3.99305 l 2.77225,2.99098 0,79.73385 c 0,86.05153 -0.11191,83.72183 5.7683,87.82679 3.21479,2.2178 8.9831,2.2178 13.19487,0 5.43258,-2.77225 6.54148,-7.09593 6.54148,-26.17103 0,-13.63741 0.33064,-17.51856 1.77526,-19.51762 5.98703,-8.54056 23.06307,-7.31975 27.83438,1.99398 0.99699,1.99398 1.43953,10.42262 1.43953,29.71644 l 0,27.05611 3.21479,3.10288 c 5.43259,5.54449 11.64343,5.7683 17.51856,0.66635 3.10288,-2.66033 3.10288,-2.88415 3.65733,-17.85428 l 0.55953,-15.18377 4.10496,-3.76924 c 3.3267,-2.99606 5.10195,-3.76924 8.64737,-3.76924 2.54844,0 5.98704,0.77827 7.76229,1.66335 6.32276,3.3267 6.65339,4.5475 6.65339,28.0531 0,23.84131 0.77827,27.72246 6.54148,30.60661 4.21178,2.2178 8.20483,2.2178 12.19789,0.11191 4.99004,-2.54843 6.76529,-7.76229 6.76529,-19.40572 0,-9.64945 0.11191,-10.31581 3.21479,-13.30678 5.6564,-5.6564 13.86123,-5.76831 19.84826,-0.22381 2.66034,2.55351 3.55051,4.43559 4.10496,9.53754 1.43953,10.86517 -0.22381,101.24546 -2.10589,123.75406 -2.66034,30.8304 -5.32068,38.8114 -14.41568,43.1351 -4.65432,2.3297 -5.6564,2.3297 -91.04156,2.1059 l -86.27027,-0.3306 -48.13027,-90.93476 -48.24216,-90.92966 3.21478,-2.44161 c 3.65733,-2.99097 8.87119,-4.21178 14.52759,-3.21479 7.54356,1.22081 9.42563,3.55051 23.39877,28.38881 11.64344,20.73844 19.74145,27.72246 32.38188,27.72246 7.53847,0 12.08598,-1.66335 17.41174,-6.09894 7.9861,-6.65339 7.31975,1.1089 7.9861,-110.33539 0.55445,-91.26538 0.77827,-100.69101 2.44161,-103.23944 3.54543,-5.43259 12.41661,-7.98611 19.18191,-5.43259 z"
       id="path4291"
       inkscape:connector-curvature="0" />
  </g>
</svg>
